{"title":"Night Train Wyatt Cenac S01E02 720p SESO webrip x265-RnC mkv","uid":15428564,"size":569393700,"categoryP":"video","categoryS":"hd___tv_shows","magnet":"?xt=urn:btih:0ed43312f51170773f0beaf0f616187a333057ec&amp;dn=Night+Train+Wyatt+Cenac+S01E02+720p+SESO+webrip+x265-RnC+mkv&amp;tr=udp%3A%2F%2Ftracker.leechers-paradise.org%3A6969&amp;tr=udp%3A%2F%2Fzer0day.ch%3A1337&amp;tr=udp%3A%2F%2Fopen.demonii.com%3A1337&amp;tr=udp%3A%2F%2Ftracker.coppersurfer.tk%3A6969&amp;tr=udp%3A%2F%2Fexodus.desync.com%3A6969","seeders":1,"leechers":0,"uploader":"Anon_up","files":1,"time":1469700491,"description":"Night Train Wyatt Cenac S01E02 720p SESO webrip x265-RnC mkv\r\n\r\n[center]INITIAL SEEDING [s]WILL TAKE TIME[/s] DONE\r\nTHANK YOU ALL FOR THE PATIENCE\r\n\r\nADD TO SEEDBOX\r\nSEED FOR LONG\r\n\r\nif you like it , lemme know \r\nso I can encode &amp; upload the next episdoes\r\n\r\nI may/may not update the torrent with web/permanent seed\r\n\r\nE01 is free \r\n\r\n[img]https://i.imgur.com/aeq87zv.jpg[/img]\r\n\r\nSource : 1080p monkee\r\n~2.5 GB thanks\r\n\r\nencoded using latest x265 v2.0 @ rf 23 for best quality\r\n\r\nCopied Original Audio\r\nCorrected Subs\r\n\r\n-RnC\r\n\r\n[spoiler=MediaInfo]\r\nGeneral\r\nUnique ID                      : 242717459455319119630703145383459206516 (0xB699AEAC763D873DAA77AB975A02B574)\r\nComplete name                  : Night.Train.with.Wyatt.CenacNight.Train.with.Wyatt.Cenac.S01E02.Cats.and.Jammers.720p.SESO.WebRip.AAC2.0.x265-RnC.mkv\r\nFormat                         : Matroska\r\nFormat version                 : Version 4 / Version 2\r\nFile size                      : 543 MiB\r\nDuration                       : 1 h 22 min\r\nOverall bit rate               : 917 kb/s\r\nMovie name                     : RnC | Night.Train.with.Wyatt.Cenac.S01E02.Cats.and.Jammers\r\nEncoded date                   : UTC 2016-07-23 08:33:47\r\nWriting application            : mkvmerge v9.3.1 ('Mask Machine') 64bit\r\nWriting library                : libebml v1.3.4 + libmatroska v1.4.5 / Lavf57.42.100\r\n\r\nVideo\r\nID                             : 1\r\nFormat                         : HEVC\r\nFormat/Info                    : High Efficiency Video Coding\r\nFormat profile                 :   @Main\r\nCodec ID                       : V_MPEGH/ISO/HEVC\r\nDuration                       : 1 h 22 min\r\nBit rate                       : 819 kb/s\r\nWidth                          : 1 280 pixels\r\nHeight                         : 720 pixels\r\nDisplay aspect ratio           : 16:9\r\nFrame rate mode                : Constant\r\nFrame rate                     : 23.810 FPS\r\nColor space                    : YUV\r\nChroma subsampling             : 4:2:0\r\nBit depth                      : 8 bits\r\nBits/(Pixel*Frame)             : 0.037\r\nStream size                    : 485 MiB (89%)\r\nWriting library                : x265 2.0:[Windows][GCC 5.4.0][64 bit] 8bit\r\nEncoding settings              : wpp / ctu=64 / min-cu-size=8 / max-tu-size=32 / tu-intra-depth=1 / tu-inter-depth=1 / me=1 / subme=2 / merange=57 / no-rect / no-amp / max-merge=2 / temporal-mvp / no-early-skip / rskip / rdpenalty=0 / no-tskip / no-tskip-fast / strong-intra-smoothing / no-lossless / no-cu-lossless / no-constrained-intra / no-fast-intra / open-gop / no-temporal-layers / interlace=0 / keyint=250 / min-keyint=23 / scenecut=40 / rc-lookahead=20 / lookahead-slices=4 / bframes=4 / bframe-bias=0 / b-adapt=2 / ref=3 / limit-refs=3 / no-limit-modes / weightp / no-weightb / aq-mode=1 / qg-size=32 / aq-strength=1.00 / cbqpoffs=0 / crqpoffs=0 / rd=3 / psy-rd=2.00 / rdoq-level=0 / psy-rdoq=0.00 / no-rd-refine / signhide / deblock=0:0 / sao / no-sao-non-deblock / b-pyramid / cutree / no-intra-refresh / rc=crf / crf=23.0 / qcomp=0.60 / qpmin=0 / qpmax=51 / qpstep=4 / ipratio=1.40 / pbratio=1.30\r\nLanguage                       : English\r\nDefault                        : Yes\r\nForced                         : No\r\n\r\nAudio\r\nID                             : 2\r\nFormat                         : AAC\r\nFormat/Info                    : Advanced Audio Codec\r\nFormat profile                 : LC\r\nCodec ID                       : A_AAC\r\nDuration                       : 1 h 22 min\r\nBit rate                       : 96.0 kb/s\r\nChannel(s)                     : 2 channels\r\nChannel positions              : Front: L R\r\nSampling rate                  : 44.1 kHz\r\nFrame rate                     : 43.066 FPS (1024 spf)\r\nCompression mode               : Lossy\r\nStream size                    : 56.8 MiB (10%)\r\nLanguage                       : English\r\nDefault                        : Yes\r\nForced                         : No\r\n\r\nText\r\nID                             : 3\r\nFormat                         : UTF-8\r\nCodec ID                       : S_TEXT/UTF8\r\nCodec ID/Info                  : UTF-8 Plain Text\r\nDuration                       : 1 h 22 min\r\nBit rate                       : 99 b/s\r\nCount of elements              : 1905\r\nStream size                    : 60.1 KiB (0%)\r\nLanguage                       : English\r\nDefault                        : Yes\r\nForced                         : No\r\n\r\n\r\n[/spoiler][/center]","torrent":{"xt":"urn:btih:0ed43312f51170773f0beaf0f616187a333057ec","amp;dn":"Night+Train+Wyatt+Cenac+S01E02+720p+SESO+webrip+x265-RnC+mkv","amp;tr":["udp%3A%2F%2Ftracker.leechers-paradise.org%3A6969","udp%3A%2F%2Fzer0day.ch%3A1337","udp%3A%2F%2Fopen.demonii.com%3A1337","udp%3A%2F%2Ftracker.coppersurfer.tk%3A6969","udp%3A%2F%2Fexodus.desync.com%3A6969"],"infoHash":"0ed43312f51170773f0beaf0f616187a333057ec","infoHashBuffer":{"type":"Buffer","data":[14,212,51,18,245,17,112,119,63,11,234,240,246,22,24,122,51,48,87,236]},"announce":[],"urlList":[]}}